# Blender v2.77 (sub 0) OBJ File: ''
# www.blender.org
mtllib cubo_mtl
o Cube_Cube.001
v -0.500000 -0.500000 1.000000
v -0.500000 0.500000 1.000000
v -0.500000 -0.500000 0.000000
v -0.500000 0.500000 0.000000
v 0.500000 -0.500000 1.000000
v 0.500000 0.500000 1.000000
v 0.500000 -0.500000 0.000000
v 0.500000 0.500000 0.000000
vt 0.5000 0.2500
vt 0.7500 0.5000
vt 0.5000 0.5000
vt 0.2500 0.2500
vt 0.5000 0.0001
vt 0.2500 0.5000
vt 0.0001 0.2500
vt 0.2500 0.7500
vt 0.5000 0.9999
vt 0.5000 0.7500
vt 0.7500 0.2500
vt 0.2500 0.0001
vt 0.0001 0.5000
vt 0.2500 0.9999
vn -1.0000 0.0000 0.0000
vn 0.0000 0.0000 -1.0000
vn 1.0000 0.0000 0.0000
vn 0.0000 0.0000 1.0000
vn 0.0000 -1.0000 0.0000
vn 0.0000 1.0000 0.0000
usemtl None
s off
f 4/1/1 1/2/1 2/3/1
f 8/4/2 3/5/2 4/1/2
f 6/6/3 7/7/3 8/4/3
f 2/3/4 5/8/4 6/6/4
f 3/9/5 5/8/5 1/10/5
f 8/4/6 2/3/6 6/6/6
f 4/1/1 3/11/1 1/2/1
f 8/4/2 7/12/2 3/5/2
f 6/6/3 5/13/3 7/7/3
f 2/3/4 1/10/4 5/8/4
f 3/9/5 7/14/5 5/8/5
f 8/4/6 4/1/6 2/3/6
