# Blender v2.78 (sub 0) OBJ File: 'ventilador_no_acabado.blend'
# www.blender.org
mtllib fan_box_mtl
o box_Plane
v -10.000000 0.000000 10.000000
v -8.750000 0.000000 10.000000
v -10.000000 0.000000 -10.000000
v -8.750000 0.000000 -10.000000
v -8.750000 0.000000 -8.750000
v 10.000000 0.000000 -10.000000
v 10.000000 0.000000 -8.750000
v -8.750000 0.000000 8.750000
v 10.000000 0.000000 10.000000
v 10.000000 0.000000 8.750000
v 8.750000 0.000000 8.750000
v 8.750000 0.000000 -8.750000
v -7.145833 0.000000 -8.749999
v -6.854167 0.000000 -8.749999
v -4.812500 0.000000 -8.749999
v -4.520833 0.000000 -8.749999
v -2.479167 0.000000 -8.749999
v -2.187500 0.000000 -8.749999
v -0.145833 0.000000 -8.749999
v 0.145833 0.000000 -8.749999
v 2.187500 0.000000 -8.749999
v 2.479167 0.000000 -8.749999
v 4.520833 0.000000 -8.749999
v 4.812500 0.000000 -8.749999
v 6.854167 0.000000 -8.749999
v 7.145833 0.000000 -8.749999
v 7.145833 0.000000 8.749999
v 6.854167 0.000000 8.749999
v 4.812500 0.000000 8.749999
v 4.520833 0.000000 8.749999
v 2.479167 0.000000 8.749999
v 2.187500 0.000000 8.749999
v 0.145833 0.000000 8.749999
v -0.145833 0.000000 8.749999
v -2.187500 0.000000 8.749999
v -2.479167 0.000000 8.749999
v -4.520834 0.000000 8.749999
v -4.812500 0.000000 8.749999
v -6.854167 0.000000 8.749999
v -7.145833 0.000000 8.749999
v -9.999998 5.359385 9.999998
v -9.999998 5.359385 -9.999998
v 9.999998 5.359385 9.999998
v 9.999998 5.359385 -9.999998
vn 0.0000 1.0000 0.0000
vn -1.0000 0.0000 0.0000
vn 0.0000 0.0000 -1.0000
vn 1.0000 0.0000 0.0000
vn 0.0000 0.0000 1.0000
usemtl Material.001
s off
f 5//1 4//1 3//1
f 19//1 20//1 4//1
f 2//1 34//1 35//1
f 11//1 7//1 12//1
f 40//1 14//1 13//1
f 38//1 16//1 15//1
f 36//1 18//1 17//1
f 34//1 20//1 19//1
f 32//1 22//1 21//1
f 30//1 24//1 23//1
f 28//1 26//1 25//1
f 41//2 3//2 1//2
f 42//3 6//3 3//3
f 44//4 9//4 6//4
f 43//5 1//5 9//5
f 42//1 43//1 44//1
f 3//1 1//1 8//1
f 8//1 5//1 3//1
f 1//1 2//1 8//1
f 6//1 23//1 24//1
f 5//1 13//1 4//1
f 15//1 16//1 4//1
f 13//1 14//1 4//1
f 12//1 7//1 6//1
f 25//1 26//1 6//1
f 22//1 23//1 6//1
f 24//1 25//1 6//1
f 12//1 6//1 26//1
f 14//1 15//1 4//1
f 18//1 19//1 4//1
f 16//1 17//1 4//1
f 6//1 21//1 22//1
f 20//1 21//1 6//1
f 6//1 4//1 20//1
f 17//1 18//1 4//1
f 40//1 8//1 2//1
f 2//1 9//1 33//1
f 11//1 27//1 9//1
f 9//1 10//1 11//1
f 39//1 40//1 2//1
f 36//1 37//1 2//1
f 38//1 39//1 2//1
f 9//1 27//1 28//1
f 29//1 30//1 9//1
f 9//1 28//1 29//1
f 37//1 38//1 2//1
f 33//1 34//1 2//1
f 35//1 36//1 2//1
f 9//1 30//1 31//1
f 32//1 33//1 9//1
f 9//1 31//1 32//1
f 11//1 10//1 7//1
f 40//1 39//1 14//1
f 38//1 37//1 16//1
f 36//1 35//1 18//1
f 34//1 33//1 20//1
f 32//1 31//1 22//1
f 30//1 29//1 24//1
f 28//1 27//1 26//1
f 41//2 42//2 3//2
f 42//3 44//3 6//3
f 44//4 43//4 9//4
f 43//5 41//5 1//5
f 42//1 41//1 43//1
