# Blender v2.78 (sub 0) OBJ File: 'ventilador_no_acabado.blend'
# www.blender.org
mtllib fan_fan_mtl
o fan_Cylinder
v -0.462415 0.585000 0.008879
v -0.462415 1.415000 0.008879
v -0.238897 0.585000 -0.396024
v -0.238897 1.415000 -0.396024
v 0.223518 0.585000 -0.404902
v 0.223518 1.415000 -0.404902
v 0.462415 0.585000 -0.008879
v 0.462415 1.415000 -0.008879
v 0.238897 0.585000 0.396024
v 0.238897 1.415000 0.396024
v -0.223518 0.585000 0.404902
v -0.223518 1.415000 0.404902
v -0.837120 1.080469 -0.682389
v -0.758858 0.947430 -0.723183
v 0.125615 1.423513 -1.452323
v 0.047353 1.556552 -1.411529
v -0.181144 1.087246 -0.327311
v -0.259407 1.220286 -0.286518
v 0.159083 1.213100 -0.315909
v 0.080821 1.346140 -0.275115
v -2.826157 0.723351 -3.547440
v -3.387978 0.282079 -2.376681
v -3.466241 0.415119 -2.335887
v -2.904420 0.856391 -3.506645
v 0.053305 1.779837 -2.537914
v 0.131568 1.646798 -2.578708
v -1.063999 2.196143 -6.802842
v -0.985737 2.063103 -6.843636
v -5.340976 0.086927 -5.129050
v -4.696760 0.012679 -3.514772
v -4.775022 0.145718 -3.473978
v -5.419238 0.219967 -5.088257
v -5.071491 0.730154 -7.020891
v -4.993229 0.597115 -7.061685
v -2.471537 1.936796 -8.181635
v -2.393274 1.803757 -8.222429
v -4.052187 1.360178 -8.275798
v -3.973925 1.227138 -8.316592
v -1.009527 1.080469 0.383773
v -1.005724 0.947430 0.295599
v -1.194941 1.423513 -0.834947
v -1.198744 1.556552 -0.746773
v -0.374032 1.087246 -0.006780
v -0.377835 1.220286 0.081394
v -0.194044 1.213100 -0.295724
v -0.197846 1.346140 -0.207550
v -4.485251 0.723351 0.673804
v -3.752255 0.282079 1.745735
v -3.756058 0.415119 1.833909
v -4.489054 0.856391 0.761979
v -2.171246 1.779837 -1.315121
v -2.167443 1.646798 -1.403295
v -6.423434 2.196143 -2.479971
v -6.419631 2.063103 -2.568145
v -7.112376 0.086927 2.060896
v -5.392262 0.012679 2.310128
v -5.396064 0.145718 2.398301
v -7.116179 0.219967 2.149070
v -8.616014 0.730154 0.881594
v -8.612213 0.597115 0.793421
v -8.321273 1.936796 -1.950404
v -8.317471 1.803757 -2.038578
v -9.193145 1.360178 -0.628602
v -9.189343 1.227138 -0.716776
v 0.172406 1.080469 -1.066162
v 0.246866 0.947430 -1.018782
v 1.320556 1.423513 -0.617376
v 1.246097 1.556552 -0.664756
v 0.192888 1.087246 -0.320531
v 0.118429 1.220286 -0.367912
v 0.353127 1.213100 -0.020185
v 0.278667 1.346140 -0.067565
v 1.659093 0.723351 -4.221244
v 0.364276 0.282079 -4.122416
v 0.289816 0.415119 -4.169796
v 1.584634 0.856391 -4.268624
v 2.224550 1.779837 -1.222794
v 2.299010 1.646798 -1.175413
v 5.359434 2.196143 -4.322872
v 5.433893 2.063103 -4.275492
v 1.771399 0.086927 -7.189946
v 0.695501 0.012679 -5.824899
v 0.621041 0.145718 -5.872279
v 1.696939 0.219967 -7.237326
v 3.544523 0.730154 -7.902485
v 3.618983 0.597115 -7.855105
v 5.849735 1.936796 -6.231233
v 5.924195 1.803757 -6.183852
v 5.140956 1.360178 -7.647197
v 5.215417 1.227138 -7.599817
v 1.009526 1.080469 -0.383773
v 1.005724 0.947430 -0.295599
v 1.194942 1.423513 0.834947
v 1.198744 1.556552 0.746773
v 0.374032 1.087246 0.006780
v 0.377835 1.220286 -0.081394
v 0.194044 1.213100 0.295724
v 0.197846 1.346140 0.207550
v 4.485251 0.723351 -0.673805
v 3.752255 0.282079 -1.745735
v 3.756058 0.415119 -1.833910
v 4.489054 0.856391 -0.761979
v 2.171246 1.779837 1.315121
v 2.167443 1.646798 1.403295
v 6.423434 2.196143 2.479970
v 6.419631 2.063103 2.568144
v 7.112376 0.086927 -2.060896
v 5.392262 0.012679 -2.310128
v 5.396064 0.145718 -2.398302
v 7.116178 0.219967 -2.149071
v 8.616015 0.730154 -0.881596
v 8.612213 0.597115 -0.793422
v 8.321273 1.936796 1.950403
v 8.317471 1.803757 2.038577
v 9.193145 1.360178 0.628600
v 9.189343 1.227138 0.716775
v 0.837120 1.080469 0.682389
v 0.758858 0.947430 0.723183
v -0.125615 1.423513 1.452323
v -0.047352 1.556552 1.411530
v 0.181144 1.087246 0.327311
v 0.259407 1.220286 0.286518
v -0.159083 1.213100 0.315909
v -0.080820 1.346140 0.275115
v 2.826158 0.723351 3.547439
v 3.387979 0.282079 2.376681
v 3.466241 0.415119 2.335887
v 2.904420 0.856391 3.506645
v -0.053305 1.779837 2.537914
v -0.131567 1.646798 2.578708
v 1.064000 2.196143 6.802842
v 0.985738 2.063103 6.843636
v 5.340977 0.086927 5.129050
v 4.696760 0.012679 3.514771
v 4.775022 0.145718 3.473977
v 5.419239 0.219967 5.088256
v 5.071492 0.730154 7.020891
v 4.993230 0.597115 7.061684
v 2.471538 1.936796 8.181635
v 2.393275 1.803757 8.222429
v 4.052188 1.360178 8.275797
v 3.973926 1.227138 8.316592
v -0.172406 1.080469 1.066162
v -0.246866 0.947430 1.018782
v -1.320556 1.423513 0.617376
v -1.246097 1.556552 0.664756
v -0.192888 1.087246 0.320531
v -0.118429 1.220286 0.367912
v -0.353127 1.213100 0.020185
v -0.278667 1.346140 0.067565
v -1.659094 0.723351 4.221244
v -0.364277 0.282079 4.122416
v -0.289817 0.415119 4.169796
v -1.584634 0.856391 4.268624
v -2.224551 1.779837 1.222794
v -2.299011 1.646798 1.175413
v -5.359434 2.196143 4.322872
v -5.433894 2.063103 4.275492
v -1.771399 0.086927 7.189946
v -0.695501 0.012679 5.824899
v -0.621042 0.145718 5.872279
v -1.696940 0.219967 7.237326
v -3.544524 0.730154 7.902486
v -3.618983 0.597115 7.855105
v -5.849735 1.936796 6.231232
v -5.924195 1.803757 6.183851
v -5.140957 1.360178 7.647196
v -5.215417 1.227138 7.599817
vt 0.0000 0.0000
vt 0.0000 0.0000
vt 0.0000 0.0000
vt 0.0000 0.0000
vt 0.0000 0.0000
vt 0.0000 0.0000
vt 0.0000 0.0000
vt 0.0000 0.0000
vt 0.0000 0.0000
vt 0.0000 0.0000
vt 0.0000 0.0000
vt 0.0000 0.0000
vt 0.0000 0.0000
vt 0.0000 0.0000
vt 0.0000 0.0000
vt 0.0000 0.0000
vt 0.0000 0.0000
vt 0.0000 0.0000
vt 0.0000 0.0000
vt 0.0000 0.0000
vt 0.0000 0.0000
vt 0.0000 0.0000
vt 0.0000 0.0000
vt 0.0000 0.0000
vt 0.0000 0.0000
vt 0.0000 0.0000
vt 0.0000 0.0000
vt 0.0000 0.0000
vt 0.0000 0.0000
vt 0.0000 0.0000
vt 0.0000 0.0000
vt 0.0000 0.0000
vt 0.0000 0.0000
vt 0.0000 0.0000
vt 0.0000 0.0000
vt 0.0000 0.0000
vt 0.0000 0.0000
vt 0.0000 0.0000
vt 0.0000 0.0000
vt 0.0000 0.0000
vt 0.0000 0.0000
vt 0.0000 0.0000
vt 0.0000 0.0000
vt 0.0000 0.0000
vt 0.0000 0.0000
vt 0.0000 0.0000
vt 0.0000 0.0000
vt 0.0000 0.0000
vt 0.0000 0.0000
vt 0.0000 0.0000
vt 0.0000 0.0000
vt 0.0000 0.0000
vt 0.0000 0.0000
vt 0.0000 0.0000
vt 0.0000 0.0000
vt 0.0000 0.0000
vt 0.0000 0.0000
vt 0.0000 0.0000
vt 0.0000 0.0000
vt 0.0000 0.0000
vt 0.0000 0.0000
vt 0.0000 0.0000
vt 0.0000 0.0000
vt 0.0000 0.0000
vt 0.0000 0.0000
vt 0.0000 0.0000
vt 0.0000 0.0000
vt 0.0000 0.0000
vt 0.0000 0.0000
vt 0.0000 0.0000
vt 0.0000 0.0000
vt 0.0000 0.0000
vt 0.0000 0.0000
vt 0.0000 0.0000
vt 0.0000 0.0000
vt 0.0000 0.0000
vt 0.0000 0.0000
vt 0.0000 0.0000
vt 0.0000 0.0000
vt 0.0000 0.0000
vt 0.0000 0.0000
vt 0.0000 0.0000
vt 0.0000 0.0000
vt 0.0000 0.0000
vt 0.0000 0.0000
vt 0.0000 0.0000
vt 0.0000 0.0000
vt 0.0000 0.0000
vt 0.0000 0.0000
vt 0.0000 0.0000
vt 0.0000 0.0000
vt 0.0000 0.0000
vt 0.0000 0.0000
vt 0.0000 0.0000
vt 0.0000 0.0000
vt 0.0000 0.0000
vt 0.0000 0.0000
vt 0.0000 0.0000
vt 0.0000 0.0000
vt 0.0000 0.0000
vt 0.0000 0.0000
vt 0.0000 0.0000
vt 0.0000 0.0000
vt 0.0000 0.0000
vt 0.0000 0.0000
vt 0.0000 0.0000
vt 0.0000 0.0000
vt 0.0000 0.0000
vt 0.0000 0.0000
vt 0.0000 0.0000
vt 0.0000 0.0000
vt 0.0000 0.0000
vt 0.0000 0.0000
vt 0.0000 0.0000
vt 0.0000 0.0000
vt 0.0000 0.0000
vt 0.0000 0.0000
vt 0.0000 0.0000
vt 0.0000 0.0000
vt 0.0000 0.0000
vt 0.0000 0.0000
vt 0.0000 0.0000
vt 0.0000 0.0000
vt 0.0000 0.0000
vt 0.0000 0.0000
vt 0.0000 0.0000
vt 0.0000 0.0000
vt 0.0000 0.0000
vt 0.0000 0.0000
vt 0.0000 0.0000
vt 0.0000 0.0000
vt 0.0000 0.0000
vt 0.0000 0.0000
vt 0.0000 0.0000
vt 0.0000 0.0000
vt 0.0000 0.0000
vt 0.0000 0.0000
vt 0.0000 0.0000
vt 0.0000 0.0000
vt 0.0000 0.0000
vt 0.0000 0.0000
vt 0.0000 0.0000
vt 0.0000 0.0000
vt 0.0000 0.0000
vt 0.0000 0.0000
vt 0.0000 0.0000
vt 0.0000 0.0000
vt 0.0000 0.0000
vt 0.0000 0.0000
vt 0.0000 0.0000
vt 0.0000 0.0000
vt 0.0000 0.0000
vt 0.0000 0.0000
vt 0.0000 0.0000
vt 0.0000 0.0000
vt 0.0000 0.0000
vt 0.0000 0.0000
vt 0.0000 0.0000
vt 0.0000 0.0000
vt 0.0000 0.0000
vt 0.0000 0.0000
vt 0.0000 0.0000
vt 0.0000 0.0000
vt 0.0000 0.0000
vt 0.0000 0.0000
vt 0.0000 0.0000
vt 0.0000 0.0000
vt 0.0000 0.0000
vn -0.8755 0.0000 -0.4833
vn -0.0192 0.0000 -0.9998
vn 0.8563 0.0000 -0.5165
vn 0.8755 0.0000 0.4833
vn 0.0000 1.0000 0.0000
vn 0.0192 0.0000 0.9998
vn -0.8563 0.0000 0.5165
vn 0.0000 -1.0000 -0.0000
vn 0.3465 -0.9205 -0.1806
vn 0.8687 0.4910 0.0653
vn 0.0633 -0.2584 0.9640
vn -0.4136 -0.4805 0.7733
vn -0.3465 0.9205 0.1806
vn -0.3821 -0.4690 0.7963
vn 0.8274 0.5371 -0.1643
vn 0.8707 0.4815 0.1001
vn -0.7843 -0.5496 0.2877
vn -0.8641 -0.4261 -0.2680
vn -0.5024 -0.5097 0.6984
vn -0.0414 0.2706 -0.9618
vn 0.5458 0.5221 -0.6554
vn -0.7058 -0.2075 -0.6774
vn 0.0168 -0.9205 -0.3904
vn 0.4909 0.4910 -0.7197
vn 0.8665 -0.2584 0.4272
vn 0.4629 -0.4805 0.7449
vn -0.0168 0.9205 0.3904
vn 0.4985 -0.4690 0.7291
vn 0.2714 0.5371 -0.7987
vn 0.5220 0.4815 -0.7040
vn -0.1430 -0.5496 0.8231
vn -0.6641 -0.4261 0.6143
vn 0.3536 -0.5097 0.7843
vn -0.8537 0.2706 -0.4450
vn -0.2947 0.5220 -0.8004
vn -0.9395 -0.2075 0.2725
vn 0.3297 -0.9205 0.2098
vn 0.3778 0.4910 0.7850
vn -0.8032 -0.2584 0.5368
vn -0.8766 -0.4805 0.0284
vn -0.3297 0.9205 -0.2098
vn -0.8807 -0.4690 0.0672
vn 0.5560 0.5371 0.6344
vn 0.3487 0.4815 0.8041
vn -0.6413 -0.5496 -0.5354
vn -0.2000 -0.4261 -0.8823
vn -0.8561 -0.5097 -0.0859
vn 0.8122 0.2706 -0.5168
vn 0.8405 0.5221 0.1450
vn 0.2338 -0.2075 -0.9499
vn -0.0168 -0.9205 0.3904
vn -0.4909 0.4910 0.7197
vn -0.8665 -0.2584 -0.4272
vn -0.4629 -0.4805 -0.7449
vn 0.0168 0.9205 -0.3904
vn -0.4985 -0.4690 -0.7291
vn -0.2714 0.5371 0.7987
vn -0.5220 0.4815 0.7040
vn 0.1430 -0.5496 -0.8231
vn 0.6641 -0.4261 -0.6143
vn -0.3536 -0.5097 -0.7843
vn 0.8537 0.2706 0.4450
vn 0.2947 0.5221 0.8004
vn 0.9395 -0.2075 -0.2725
vn -0.3465 -0.9205 0.1806
vn -0.8687 0.4910 -0.0653
vn -0.0633 -0.2584 -0.9640
vn 0.4136 -0.4805 -0.7733
vn 0.3465 0.9205 -0.1806
vn 0.3821 -0.4690 -0.7963
vn -0.8274 0.5371 0.1643
vn -0.8707 0.4815 -0.1001
vn 0.7843 -0.5496 -0.2877
vn 0.8641 -0.4261 0.2680
vn 0.5024 -0.5097 -0.6984
vn 0.0414 0.2706 0.9618
vn -0.5458 0.5221 0.6554
vn 0.7058 -0.2075 0.6774
vn -0.3297 -0.9205 -0.2098
vn -0.3778 0.4910 -0.7850
vn 0.8032 -0.2584 -0.5368
vn 0.8766 -0.4805 -0.0284
vn 0.3297 0.9205 0.2098
vn 0.8807 -0.4690 -0.0672
vn -0.5560 0.5371 -0.6344
vn -0.3487 0.4815 -0.8041
vn 0.6413 -0.5496 0.5354
vn 0.2000 -0.4261 0.8823
vn 0.8561 -0.5097 0.0859
vn -0.8122 0.2706 0.5168
vn -0.8405 0.5221 -0.1450
vn -0.2338 -0.2075 0.9499
vn 0.5458 0.5220 -0.6554
vn -0.9395 -0.2074 0.2725
vn 0.8123 0.2706 -0.5168
vn 0.8405 0.5220 0.1450
vn 0.2947 0.5220 0.8004
vn -0.5458 0.5220 0.6554
vn -0.8123 0.2706 0.5168
usemtl Metal_Aluminum_A
s off
f 2/1/1 3/2/1 1/3/1
f 4/4/2 5/5/2 3/2/2
f 6/6/3 7/7/3 5/5/3
f 8/8/4 9/9/4 7/7/4
f 2/1/5 10/10/5 6/6/5
f 10/10/6 11/11/6 9/9/6
f 12/12/7 1/3/7 11/11/7
f 3/2/8 9/9/8 11/11/8
f 14/13/9 21/14/9 15/15/9
f 16/16/10 19/17/10 15/15/10
f 20/18/11 17/19/11 19/17/11
f 18/20/12 14/13/12 17/19/12
f 15/15/9 17/19/9 14/13/9
f 16/16/13 18/20/13 20/18/13
f 24/21/13 33/22/13 32/23/13
f 24/21/13 25/24/13 27/25/13
f 13/26/14 22/27/14 14/13/14
f 13/26/13 24/21/13 23/28/13
f 26/29/15 27/25/15 25/24/15
f 15/15/16 25/24/16 16/16/16
f 21/14/9 26/29/9 15/15/9
f 21/14/9 34/30/9 28/31/9
f 30/32/17 32/23/17 29/33/17
f 29/33/18 33/22/18 34/30/18
f 24/21/13 31/34/13 23/28/13
f 21/14/9 30/32/9 29/33/9
f 33/22/13 35/35/13 37/36/13
f 23/28/19 30/32/19 22/27/19
f 35/35/20 38/37/20 37/36/20
f 27/25/21 36/38/21 35/35/21
f 34/30/22 37/36/22 38/37/22
f 34/30/9 36/38/9 28/31/9
f 40/39/23 47/40/23 41/41/23
f 42/42/24 45/43/24 41/41/24
f 46/44/25 43/45/25 45/43/25
f 44/46/26 40/39/26 43/45/26
f 41/41/23 43/45/23 40/39/23
f 42/42/27 44/46/27 46/44/27
f 50/47/27 59/48/27 58/49/27
f 50/47/27 51/50/27 53/51/27
f 39/52/28 48/53/28 40/39/28
f 39/52/27 50/47/27 49/54/27
f 52/55/29 53/51/29 51/50/29
f 41/41/30 51/50/30 42/42/30
f 47/40/23 52/55/23 41/41/23
f 47/40/23 60/56/23 54/57/23
f 56/58/31 58/49/31 55/59/31
f 55/59/32 59/48/32 60/56/32
f 50/47/27 57/60/27 49/54/27
f 47/40/23 56/58/23 55/59/23
f 59/48/27 61/61/27 63/62/27
f 49/54/33 56/58/33 48/53/33
f 61/61/34 64/63/34 63/62/34
f 53/51/35 62/64/35 61/61/35
f 60/56/36 63/62/36 64/63/36
f 60/56/23 62/64/23 54/57/23
f 66/65/37 73/66/37 67/67/37
f 68/68/38 71/69/38 67/67/38
f 72/70/39 69/71/39 71/69/39
f 70/72/40 66/65/40 69/71/40
f 67/67/37 69/71/37 66/65/37
f 68/68/41 70/72/41 72/70/41
f 76/73/41 85/74/41 84/75/41
f 76/73/41 77/76/41 79/77/41
f 65/78/42 74/79/42 66/65/42
f 65/78/41 76/73/41 75/80/41
f 78/81/43 79/77/43 77/76/43
f 67/67/44 77/76/44 68/68/44
f 73/66/37 78/81/37 67/67/37
f 73/66/37 86/82/37 80/83/37
f 82/84/45 84/75/45 81/85/45
f 81/85/46 85/74/46 86/82/46
f 76/73/41 83/86/41 75/80/41
f 73/66/37 82/84/37 81/85/37
f 85/74/41 87/87/41 89/88/41
f 75/80/47 82/84/47 74/79/47
f 87/87/48 90/89/48 89/88/48
f 79/77/49 88/90/49 87/87/49
f 86/82/50 89/88/50 90/89/50
f 86/82/37 88/90/37 80/83/37
f 92/91/51 99/92/51 93/93/51
f 94/94/52 97/95/52 93/93/52
f 98/96/53 95/97/53 97/95/53
f 96/98/54 92/91/54 95/97/54
f 93/93/51 95/97/51 92/91/51
f 94/94/55 96/98/55 98/96/55
f 102/99/55 111/100/55 110/101/55
f 102/99/55 103/102/55 105/103/55
f 91/104/56 100/105/56 92/91/56
f 91/104/55 102/99/55 101/106/55
f 104/107/57 105/103/57 103/102/57
f 93/93/58 103/102/58 94/94/58
f 99/92/51 104/107/51 93/93/51
f 99/92/51 112/108/51 106/109/51
f 108/110/59 110/101/59 107/111/59
f 107/111/60 111/100/60 112/108/60
f 102/99/55 109/112/55 101/106/55
f 99/92/51 108/110/51 107/111/51
f 111/100/55 113/113/55 115/114/55
f 101/106/61 108/110/61 100/105/61
f 113/113/62 116/115/62 115/114/62
f 105/103/63 114/116/63 113/113/63
f 112/108/64 115/114/64 116/115/64
f 112/108/51 114/116/51 106/109/51
f 118/117/65 125/118/65 119/119/65
f 120/120/66 123/121/66 119/119/66
f 124/122/67 121/123/67 123/121/67
f 122/124/68 118/117/68 121/123/68
f 119/119/65 121/123/65 118/117/65
f 120/120/69 122/124/69 124/122/69
f 128/125/69 137/126/69 136/127/69
f 128/125/69 129/128/69 131/129/69
f 117/130/70 126/131/70 118/117/70
f 117/130/69 128/125/69 127/132/69
f 130/133/71 131/129/71 129/128/71
f 119/119/72 129/128/72 120/120/72
f 125/118/65 130/133/65 119/119/65
f 125/118/65 138/134/65 132/135/65
f 134/136/73 136/127/73 133/137/73
f 133/137/74 137/126/74 138/134/74
f 128/125/69 135/138/69 127/132/69
f 125/118/65 134/136/65 133/137/65
f 137/126/69 139/139/69 141/140/69
f 127/132/75 134/136/75 126/131/75
f 139/139/76 142/141/76 141/140/76
f 131/129/77 140/142/77 139/139/77
f 138/134/78 141/140/78 142/141/78
f 138/134/65 140/142/65 132/135/65
f 144/143/79 151/144/79 145/145/79
f 146/146/80 149/147/80 145/145/80
f 150/148/81 147/149/81 149/147/81
f 148/150/82 144/143/82 147/149/82
f 145/145/79 147/149/79 144/143/79
f 146/146/83 148/150/83 150/148/83
f 154/151/83 163/152/83 162/153/83
f 154/151/83 155/154/83 157/155/83
f 143/156/84 152/157/84 144/143/84
f 143/156/83 154/151/83 153/158/83
f 156/159/85 157/155/85 155/154/85
f 145/145/86 155/154/86 146/146/86
f 151/144/79 156/159/79 145/145/79
f 151/144/79 164/160/79 158/161/79
f 160/162/87 162/153/87 159/163/87
f 159/163/88 163/152/88 164/160/88
f 154/151/83 161/164/83 153/158/83
f 151/144/79 160/162/79 159/163/79
f 163/152/83 165/165/83 167/166/83
f 153/158/89 160/162/89 152/157/89
f 165/165/90 168/167/90 167/166/90
f 157/155/91 166/168/91 165/165/91
f 164/160/92 167/166/92 168/167/92
f 164/160/79 166/168/79 158/161/79
f 2/1/1 4/4/1 3/2/1
f 4/4/2 6/6/2 5/5/2
f 6/6/3 8/8/3 7/7/3
f 8/8/4 10/10/4 9/9/4
f 6/6/5 4/4/5 2/1/5
f 2/1/5 12/12/5 10/10/5
f 10/10/5 8/8/5 6/6/5
f 10/10/6 12/12/6 11/11/6
f 12/12/7 2/1/7 1/3/7
f 11/11/8 1/3/8 3/2/8
f 3/2/8 5/5/8 7/7/8
f 7/7/8 9/9/8 3/2/8
f 14/13/9 22/27/9 21/14/9
f 16/16/10 20/18/10 19/17/10
f 20/18/11 18/20/11 17/19/11
f 18/20/12 13/26/12 14/13/12
f 15/15/9 19/17/9 17/19/9
f 16/16/13 13/26/13 18/20/13
f 24/21/13 27/25/13 33/22/13
f 24/21/13 16/16/13 25/24/13
f 13/26/14 23/28/14 22/27/14
f 13/26/13 16/16/13 24/21/13
f 26/29/15 28/31/15 27/25/15
f 15/15/16 26/29/16 25/24/16
f 21/14/9 28/31/9 26/29/9
f 21/14/9 29/33/9 34/30/9
f 30/32/17 31/34/17 32/23/17
f 29/33/18 32/23/18 33/22/18
f 24/21/13 32/23/13 31/34/13
f 21/14/9 22/27/9 30/32/9
f 33/22/13 27/25/13 35/35/13
f 23/28/19 31/34/19 30/32/19
f 35/35/20 36/38/20 38/37/20
f 27/25/93 28/31/93 36/38/93
f 34/30/22 33/22/22 37/36/22
f 34/30/9 38/37/9 36/38/9
f 40/39/23 48/53/23 47/40/23
f 42/42/24 46/44/24 45/43/24
f 46/44/25 44/46/25 43/45/25
f 44/46/26 39/52/26 40/39/26
f 41/41/23 45/43/23 43/45/23
f 42/42/27 39/52/27 44/46/27
f 50/47/27 53/51/27 59/48/27
f 50/47/27 42/42/27 51/50/27
f 39/52/28 49/54/28 48/53/28
f 39/52/27 42/42/27 50/47/27
f 52/55/29 54/57/29 53/51/29
f 41/41/30 52/55/30 51/50/30
f 47/40/23 54/57/23 52/55/23
f 47/40/23 55/59/23 60/56/23
f 56/58/31 57/60/31 58/49/31
f 55/59/32 58/49/32 59/48/32
f 50/47/27 58/49/27 57/60/27
f 47/40/23 48/53/23 56/58/23
f 59/48/27 53/51/27 61/61/27
f 49/54/33 57/60/33 56/58/33
f 61/61/34 62/64/34 64/63/34
f 53/51/35 54/57/35 62/64/35
f 60/56/94 59/48/94 63/62/94
f 60/56/23 64/63/23 62/64/23
f 66/65/37 74/79/37 73/66/37
f 68/68/38 72/70/38 71/69/38
f 72/70/39 70/72/39 69/71/39
f 70/72/40 65/78/40 66/65/40
f 67/67/37 71/69/37 69/71/37
f 68/68/41 65/78/41 70/72/41
f 76/73/41 79/77/41 85/74/41
f 76/73/41 68/68/41 77/76/41
f 65/78/42 75/80/42 74/79/42
f 65/78/41 68/68/41 76/73/41
f 78/81/43 80/83/43 79/77/43
f 67/67/44 78/81/44 77/76/44
f 73/66/37 80/83/37 78/81/37
f 73/66/37 81/85/37 86/82/37
f 82/84/45 83/86/45 84/75/45
f 81/85/46 84/75/46 85/74/46
f 76/73/41 84/75/41 83/86/41
f 73/66/37 74/79/37 82/84/37
f 85/74/41 79/77/41 87/87/41
f 75/80/47 83/86/47 82/84/47
f 87/87/95 88/90/95 90/89/95
f 79/77/96 80/83/96 88/90/96
f 86/82/50 85/74/50 89/88/50
f 86/82/37 90/89/37 88/90/37
f 92/91/51 100/105/51 99/92/51
f 94/94/52 98/96/52 97/95/52
f 98/96/53 96/98/53 95/97/53
f 96/98/54 91/104/54 92/91/54
f 93/93/51 97/95/51 95/97/51
f 94/94/55 91/104/55 96/98/55
f 102/99/55 105/103/55 111/100/55
f 102/99/55 94/94/55 103/102/55
f 91/104/56 101/106/56 100/105/56
f 91/104/55 94/94/55 102/99/55
f 104/107/57 106/109/57 105/103/57
f 93/93/58 104/107/58 103/102/58
f 99/92/51 106/109/51 104/107/51
f 99/92/51 107/111/51 112/108/51
f 108/110/59 109/112/59 110/101/59
f 107/111/60 110/101/60 111/100/60
f 102/99/55 110/101/55 109/112/55
f 99/92/51 100/105/51 108/110/51
f 111/100/55 105/103/55 113/113/55
f 101/106/61 109/112/61 108/110/61
f 113/113/62 114/116/62 116/115/62
f 105/103/97 106/109/97 114/116/97
f 112/108/64 111/100/64 115/114/64
f 112/108/51 116/115/51 114/116/51
f 118/117/65 126/131/65 125/118/65
f 120/120/66 124/122/66 123/121/66
f 124/122/67 122/124/67 121/123/67
f 122/124/68 117/130/68 118/117/68
f 119/119/65 123/121/65 121/123/65
f 120/120/69 117/130/69 122/124/69
f 128/125/69 131/129/69 137/126/69
f 128/125/69 120/120/69 129/128/69
f 117/130/70 127/132/70 126/131/70
f 117/130/69 120/120/69 128/125/69
f 130/133/71 132/135/71 131/129/71
f 119/119/72 130/133/72 129/128/72
f 125/118/65 132/135/65 130/133/65
f 125/118/65 133/137/65 138/134/65
f 134/136/73 135/138/73 136/127/73
f 133/137/74 136/127/74 137/126/74
f 128/125/69 136/127/69 135/138/69
f 125/118/65 126/131/65 134/136/65
f 137/126/69 131/129/69 139/139/69
f 127/132/75 135/138/75 134/136/75
f 139/139/76 140/142/76 142/141/76
f 131/129/98 132/135/98 140/142/98
f 138/134/78 137/126/78 141/140/78
f 138/134/65 142/141/65 140/142/65
f 144/143/79 152/157/79 151/144/79
f 146/146/80 150/148/80 149/147/80
f 150/148/81 148/150/81 147/149/81
f 148/150/82 143/156/82 144/143/82
f 145/145/79 149/147/79 147/149/79
f 146/146/83 143/156/83 148/150/83
f 154/151/83 157/155/83 163/152/83
f 154/151/83 146/146/83 155/154/83
f 143/156/84 153/158/84 152/157/84
f 143/156/83 146/146/83 154/151/83
f 156/159/85 158/161/85 157/155/85
f 145/145/86 156/159/86 155/154/86
f 151/144/79 158/161/79 156/159/79
f 151/144/79 159/163/79 164/160/79
f 160/162/87 161/164/87 162/153/87
f 159/163/88 162/153/88 163/152/88
f 154/151/83 162/153/83 161/164/83
f 151/144/79 152/157/79 160/162/79
f 163/152/83 157/155/83 165/165/83
f 153/158/89 161/164/89 160/162/89
f 165/165/99 166/168/99 168/167/99
f 157/155/91 158/161/91 166/168/91
f 164/160/92 163/152/92 167/166/92
f 164/160/79 168/167/79 166/168/79
