# Blender v2.78 (sub 0) OBJ File: 'pipe.blend'
# www.blender.org
mtllib pipe_mtl
o Cylinder_Cylinder.011
v -2.500000 0.000002 5.000000
v -2.500000 0.000000 0.000000
v -2.022542 -1.469461 5.000000
v -2.022542 -1.469463 0.000000
v -0.772542 -2.377639 5.000000
v -0.772542 -2.377641 0.000000
v 0.772542 -2.377639 5.000000
v 0.772542 -2.377641 -0.000000
v 2.022544 -1.469461 5.000000
v 2.022543 -1.469463 -0.000000
v 2.500001 0.000002 5.000000
v 2.500000 0.000000 -0.000000
v 2.022544 1.469465 5.000000
v 2.022543 1.469463 -0.000000
v 0.772542 2.377643 5.000000
v 0.772542 2.377641 -0.000000
v -0.772542 2.377643 5.000000
v -0.772542 2.377641 0.000000
v -2.022543 1.469465 5.000000
v -2.022543 1.469462 0.000000
vn -0.9511 -0.3090 0.0000
vn -0.5878 -0.8090 0.0000
vn 0.0000 -1.0000 0.0000
vn 0.5878 -0.8090 0.0000
vn 0.9511 -0.3090 0.0000
vn 0.9511 0.3090 -0.0000
vn 0.5878 0.8090 -0.0000
vn 0.0000 1.0000 -0.0000
vn -0.5878 0.8090 -0.0000
vn -0.9511 0.3090 -0.0000
vn -0.5639 0.7762 -0.2820
vn -0.5639 -0.7762 -0.2820
usemtl Material.003
s off
f 1//1 4//1 3//1
f 4//2 5//2 3//2
f 6//3 7//3 5//3
f 8//4 9//4 7//4
f 10//5 11//5 9//5
f 11//6 14//6 13//6
f 13//7 16//7 15//7
f 16//8 17//8 15//8
f 18//9 19//9 17//9
f 20//10 1//10 19//10
f 1//11 2//11 4//11
f 4//2 6//2 5//2
f 6//3 8//3 7//3
f 8//4 10//4 9//4
f 10//5 12//5 11//5
f 11//6 12//6 14//6
f 13//7 14//7 16//7
f 16//8 18//8 17//8
f 18//9 20//9 19//9
f 20//12 2//12 1//12
