# Blender v2.77 (sub 0) OBJ File: ''
# www.blender.org
mtllib tuerca_mtl
o Object01.002
v -0.056812 -0.172946 -0.000000
v -0.056812 -0.346287 -0.000000
v -0.056812 -0.173144 0.299889
v -0.056812 -0.086473 0.149769
v -0.056812 0.173144 0.299889
v -0.056812 0.086473 0.149769
v -0.056812 0.346287 0.000000
v -0.056812 0.172946 -0.000000
v -0.056812 0.173144 -0.299889
v -0.056812 0.086473 -0.149769
v -0.056812 -0.173144 -0.299889
v -0.056812 -0.086473 -0.149769
v 0.056812 -0.086473 0.149769
v 0.056812 -0.173144 0.299889
v 0.056812 -0.346287 -0.000000
v 0.056812 -0.172946 -0.000000
v 0.056812 -0.173144 -0.299889
v 0.056812 -0.086473 -0.149769
v 0.056812 0.173144 -0.299889
v 0.056812 0.086473 -0.149769
v 0.056812 0.346287 0.000000
v 0.056812 0.172946 -0.000000
v 0.056812 0.173144 0.299889
v 0.056812 0.086473 0.149769
vt 1.6182 1.4836
vt 1.9785 1.4836
vt 1.9785 1.0844
vt 1.6182 1.0844
vt 1.9785 1.4836
vt 1.6182 1.4836
vt 1.9785 1.0844
vt 1.6182 1.0844
vt 1.9785 1.4836
vt 1.6182 1.4836
vt 1.9785 1.0844
vt 1.6182 1.0844
vt 1.6182 1.0844
vt 1.9785 1.0844
vt 1.9785 1.4836
vt 1.6182 1.4836
vt 1.9785 1.0844
vt 1.6182 1.0844
vt 1.9785 1.4836
vt 1.6182 1.4836
vt 1.9785 1.0844
vt 1.6182 1.0844
vt 1.9785 1.4836
vt 1.6182 1.4836
vt 1.6465 0.5385
vt 1.6465 0.0295
vt 1.9541 0.5385
vt 1.9541 0.0295
vt 1.6465 0.0295
vt 1.9541 0.0295
vt 1.6465 0.5385
vt 1.9541 0.5385
vt 1.6465 0.0295
vt 1.9541 0.0295
vt 1.6465 0.5385
vt 1.9541 0.5385
vt 1.6245 0.0334
vt 1.6245 0.5417
vt 1.9739 0.0334
vt 1.9739 0.5417
vt 1.6245 0.5417
vt 1.9739 0.5417
vt 1.6245 0.0329
vt 1.9739 0.0329
vt 1.6245 0.5410
vt 1.9739 0.5410
vt 1.6245 0.0329
vt 1.9739 0.0329
vn -1.0000 -0.0000 0.0000
vn 1.0000 0.0000 0.0000
vn 0.0000 0.8660 -0.5000
vn 0.0000 0.8660 0.5000
vn 0.0000 0.0000 1.0000
vn 0.0000 -0.8660 0.5000
vn 0.0000 -0.8660 -0.5000
vn 0.0000 0.0000 -1.0000
usemtl Material__76
s 1
f 1/1/1 2/2/1 3/3/1
f 1/1/1 3/3/1 4/4/1
f 4/4/1 3/3/1 5/5/1
f 4/4/1 5/5/1 6/6/1
f 6/6/1 5/5/1 7/7/1
f 6/6/1 7/7/1 8/8/1
f 8/8/1 7/7/1 9/9/1
f 8/8/1 9/9/1 10/10/1
f 10/10/1 9/9/1 11/11/1
f 10/10/1 11/11/1 12/12/1
f 12/12/1 11/11/1 2/2/1
f 12/12/1 2/2/1 1/1/1
f 13/13/2 14/14/2 15/15/2
f 13/13/2 15/15/2 16/16/2
f 16/16/2 15/15/2 17/17/2
f 16/16/2 17/17/2 18/18/2
f 18/18/2 17/17/2 19/19/2
f 18/18/2 19/19/2 20/20/2
f 20/20/2 19/19/2 21/21/2
f 20/20/2 21/21/2 22/22/2
f 22/22/2 21/21/2 23/23/2
f 22/22/2 23/23/2 24/24/2
f 24/24/2 23/23/2 14/14/2
f 24/24/2 14/14/2 13/13/2
f 1/25/3 4/26/3 16/27/3
f 16/27/3 4/26/3 13/28/3
f 1/25/4 16/27/4 12/29/4
f 12/29/4 16/27/4 18/30/4
f 10/31/5 12/29/5 20/32/5
f 20/32/5 12/29/5 18/30/5
f 8/33/6 10/31/6 22/34/6
f 22/34/6 10/31/6 20/32/6
f 6/35/7 8/33/7 24/36/7
f 24/36/7 8/33/7 22/34/7
f 6/35/8 24/36/8 4/26/8
f 4/26/8 24/36/8 13/28/8
f 7/37/4 5/38/4 21/39/4
f 21/39/4 5/38/4 23/40/4
f 9/41/3 7/37/3 19/42/3
f 19/42/3 7/37/3 21/39/3
f 11/43/8 9/41/8 17/44/8
f 17/44/8 9/41/8 19/42/8
f 2/45/7 11/43/7 15/46/7
f 15/46/7 11/43/7 17/44/7
f 3/47/6 2/45/6 14/48/6
f 14/48/6 2/45/6 15/46/6
f 3/47/5 14/48/5 5/38/5
f 5/38/5 14/48/5 23/40/5
